<?xml version="1.0" encoding="utf-8"?>
<!-- Generator: Adobe Illustrator 18.1.0, SVG Export Plug-In . SVG Version: 6.00 Build 0)  -->
<svg version="1.1" id="Layer_1" xmlns="http://www.w3.org/2000/svg" xmlns:xlink="http://www.w3.org/1999/xlink" x="0px" y="0px"
	 viewBox="0 323.3 607.6 145.7" enable-background="new 0 323.3 607.6 145.7" xml:space="preserve">
<g>
	<polygon fill="#95C93D" points="72.8,344.2 72.8,390.8 102.4,323.3 	"/>
	<polygon fill="#FAA61A" points="72.8,344.2 72.8,390.8 43.1,323.3 	"/>
	<polygon fill="#EC008C" points="72.8,448.2 72.8,401.5 43.1,469 	"/>
	<polygon fill="#882890" points="72.8,448.2 72.8,401.5 102.4,469 	"/>
	<polygon fill="#ED1C24" points="36,433 69,399.8 0.4,426.7 	"/>
	<polygon fill="#B3006A" points="36,433 69,399.8 42.4,468.7 	"/>
	<polygon fill="#00AEEF" points="109.7,359.3 76.5,392.3 145.3,365.7 	"/>
	<polygon fill="#68BD45" points="109.7,359.3 76.5,392.3 103.3,323.7 	"/>
	<polygon fill="#F58220" points="20.8,396.1 67.5,396.1 0,366.5 	"/>
	<polygon fill="#C2151C" points="20.8,396.1 67.5,396.1 0,425.7 	"/>
	<polygon fill="#0065B2" points="124.9,396.1 78.2,396.1 145.7,425.7 	"/>
	<polygon fill="#0092C8" points="124.9,396.1 78.2,396.1 145.7,366.5 	"/>
	<polygon fill="#FFC907" points="36,359.3 69,392.3 42.4,323.7 	"/>
	<polygon fill="#F15F22" points="36,359.3 69,392.3 0.4,365.7 	"/>
	<polygon fill="#A8228E" points="109.7,433 76.5,399.8 103.3,468.7 	"/>
	<polygon fill="#005294" points="109.7,433 76.5,399.8 145.3,426.7 	"/>
</g>
<text transform="matrix(1 0 0 1 167.3018 431.7067)" fill="#7B7B7B" font-family="'MyriadPro-Cond'" font-size="110.5089">the company</text>
</svg>
